# xmcd
#
# Track frame offsets:
#	150
#	17850
#	37513
#	54668
#	74110
#	89629
#	109809
#	130961
#	148451
#	164176
#
# Disc length: 2453 seconds
#
# Revision: 1
# Processed by: cddbd v1.5.2PL0 Copyright (c) Steve Scherf et al.
# Submitted via: audiograbber 1.83.01
#
DISCID=9d09930a
DTITLE=The Secret Sisters - Saturn Return
DYEAR=2020
DGENRE=Country
TTITLE0=Silver
TTITLE1=Late Bloomer
TTITLE2=Cabin
TTITLE3=Hand Over My Heart
TTITLE4=Fair
TTITLE5=Tin Can Angel
TTITLE6=Nowhere, Baby
TTITLE7=Hold You Dear
TTITLE8=Water Witch
TTITLE9=Healer In The Sky
EXTD=
EXTT0=
EXTT1=
EXTT2=
EXTT3=
EXTT4=
EXTT5=
EXTT6=
EXTT7=
EXTT8=
EXTT9=
PLAYORDER=
